<?xml version="1.0" encoding="utf-8"?>
<!-- Generator: Adobe Illustrator 22.1.0, SVG Export Plug-In . SVG Version: 6.00 Build 0)  -->
<svg version="1.1" id="レイヤー_1" xmlns="http://www.w3.org/2000/svg" xmlns:xlink="http://www.w3.org/1999/xlink" x="0px"
	 y="0px" viewBox="0 0 179.9 35.9" style="enable-background:new 0 0 179.9 35.9;" xml:space="preserve">
<style type="text/css">
	.st0{fill:#7F3033;}
	.st1{fill:#231815;}
</style>
<g>
	<polygon class="st0" points="17.4,5.4 10.8,8.7 17.4,12 17.4,35.6 24,32.3 24,8.7 	"/>
	<polygon class="st0" points="30.6,2.9 24,6.1 30.6,9.4 30.6,35.6 37.2,32.3 37.2,6.1 	"/>
	<polygon class="st0" points="43.8,0.3 37.2,3.6 43.8,6.9 43.8,35.6 50.3,32.3 50.3,3.6 	"/>
</g>
<g>
	<g>
		<g>
			<path class="st1" d="M68.3,12.6h3.4v1.9h-3.4v-0.1V12.6 M68.3,8.5h3.4v1.9h-3.4V8.5z M65.8,14.5c0,5.1-2.1,6.2-4,7.4l1.8,1.8
				c2.5-1.4,4-3.9,4.6-6.8h3.6v3.6c0,0.5-0.2,0.7-0.6,0.7h-1.6l0.8,2.4h1.1c2,0,2.8-0.8,2.8-2.7V6.3h-8.5
				C65.8,6.3,65.8,14.5,65.8,14.5z"/>
			<path class="st1" d="M61.9,10.9h-2.4V8.5h2.4V10.9z M61.9,15.6h-2.4v-2.5h2.4V15.6z M56.9,17.8h7.5V6.3h-7.5V17.8z"/>
		</g>
		<g>
			<path class="st1" d="M88.1,15.3h-2.4c0.1-0.2,0.3-0.4,0.4-0.6l-1.2-0.8h3.2V15.3 M84.8,10.9h8.9v1h-8.9V10.9z M84.8,8.2h8.9v1
				h-8.9V8.2z M90.9,20.4h4.5v-2h-4.5v-1h5.8v-2.1h-5.8v-1.4h5.5V6.3H82.2v7.6h1.4c-0.9,1.4-2.2,3.1-3.7,4.3l1.9,1.6
				c0.6-0.5,1.5-1.4,2.3-2.4c1.5,0,3.9,0,4,0v1h-4.4v2h4.4v1H81v2.2h16.8v-2.2h-6.9V20.4z"/>
		</g>
		<g>
			<path class="st1" d="M149.9,8.9h2.5V5.3h2.4v3.6h1.7v2.4h-1.7v1.3c0.8,1.1,1.7,1.9,2.7,2.6c-0.7,0.6-1.1,1.2-1.4,1.9
				c-0.5-0.4-0.9-0.8-1.3-1.1v8.1h-2.4V17c-0.5,1.1-1.1,2.2-1.7,3.1c-0.2-1-0.6-1.9-1.3-2.7c0.7-0.7,1.3-1.6,1.7-2.7
				c0.4-1,0.8-2.1,1.2-3.4h-2.4V8.9z M164.6,14l2.2,1.4c-0.8,1.6-1.7,2.9-2.5,4c0.3,0.3,0.6,0.5,1,0.8c0.9,0.6,2.1,1.2,3.6,1.7
				c-0.5,0.7-0.9,1.5-1.1,2.4c-1.2-0.5-2.3-1-3.3-1.8c-0.6-0.4-1.2-0.8-1.7-1.3l0,0c-1.4,1.2-3.3,2.3-5.7,3.2
				c-0.3-0.8-0.8-1.5-1.4-2.2c2.4-0.8,4.2-1.8,5.4-2.8c-1-1.2-1.8-2.6-2.5-4.2l2.1-1.1c0.5,1.4,1.1,2.6,1.9,3.6
				C163.3,16.7,164,15.5,164.6,14 M161.3,5.3h2.6v2.4h4.4V10h-3.1c1.2,1.2,2.5,2.2,4,3c-0.7,0.6-1.2,1.3-1.5,2
				c-0.8-0.5-1.5-0.9-2.1-1.5c-0.8-0.6-1.5-1.3-2.2-2.1l1.4-1.4h-5l1.8,1.3c-1.2,1.6-2.5,2.8-3.9,3.6c-0.4-0.7-0.9-1.4-1.5-1.9
				c0.7-0.3,1.2-0.7,1.7-1.1s1-1,1.8-1.9H157V7.7h4.3V5.3z"/>
		</g>
		<g>
			<path class="st1" d="M132.5,8.8c-0.1-1.1-0.4-2.7-0.6-3.6h-2.5c0.3,1,0.6,2.6,0.6,3.6H132.5"/>
			<path class="st1" d="M136.7,8.8c-0.1-1.4-0.4-2.8-0.6-3.6h-2.5c0.2,0.8,0.5,2.5,0.6,3.6H136.7"/>
			<path class="st1" d="M140.7,9.4c0.5-1,1.5-3.3,1.6-3.6l-2.5-0.7c-0.2,0.7-1.3,3-1.9,4.3H127v4.9h2.5v-2.7h12.4v2.6h2.6V9.4
				L140.7,9.4"/>
			<path class="st1" d="M141.1,13.5l-0.7-1.1h-9.8v2.2h5.6c-0.1,0.2-0.3,0.5-0.6,0.7c-0.2,0-1.1,0-1.1,0v1.2H127v2.3h7.5v2.3
				c0,0.3-0.1,0.5-0.4,0.5c-0.3,0-2.4,0-2.4,0l1,2.3h2c1.7,0,2.6-0.6,2.6-1.9v-3.2h7.3v-2.3h-7.1C138.6,15.7,140.2,14.3,141.1,13.5"
				/>
		</g>
		<g>
			<path class="st1" d="M106.7,9.5l2.6,0.7c-1.5,4.5-3,7.8-4.5,10.2c-0.6-0.7-1.3-1.2-2.1-1.7C104.3,16.2,105.7,13.2,106.7,9.5
				 M110.9,5.6h2.7v16c0,1-0.3,1.7-0.9,1.9c-0.5,0.3-1.7,0.4-3.6,0.4c0-0.7-0.3-1.5-0.7-2.5h2.5c0.1,0,0.1-0.1,0.1-0.4L110.9,5.6
				L110.9,5.6z M117.7,9.3c1.8,3.6,3.2,6.8,4.1,9.5l-2.5,1c-1.1-3.4-2.5-6.6-4-9.5L117.7,9.3z"/>
		</g>
	</g>
	<g>
		<g>
			<path class="st1" d="M57.7,30.2L57.7,30.2L57.7,30.2 M61.8,28.7h-0.6h-0.1l-1.7,2.4l0,0l0,0l-1.7-2.4c0,0,0,0-0.1,0H57l0,0V32
				l0,0h0.6l0,0v-1.9l1.3,1.9c0,0,0,0,0.1,0h0.5h0.1l1.4-1.9l0,0V32l0,0h0.9l0,0L61.8,28.7L61.8,28.7"/>
			<path class="st1" d="M67,31.6h-1.8l0,0v-0.9l0,0h1.3l0,0v-0.4l0,0h-1.3l0,0v-0.8l0,0h1.7l0,0v-0.4l0,0h-2.7l0,0v3.3l0,0H67l0,0
				V31.6C67.1,31.6,67,31.6,67,31.6"/>
			<path class="st1" d="M69.8,28.7h-0.9l0,0V32l0,0h0.9l0,0V28.7C69.9,28.7,69.9,28.7,69.8,28.7"/>
			<path class="st1" d="M74.5,31.9C74.4,31.9,74.4,31.9,74.5,31.9C74.4,31.9,74.4,31.9,74.5,31.9 M72,31.4c0.1,0,0.2,0.1,0.3,0.1
				C72.2,31.5,72.1,31.5,72,31.4 M74.2,29.2c-0.1,0-0.2,0-0.2,0S74.1,29.2,74.2,29.2 M73.9,30c-0.4-0.1-0.7-0.2-0.8-0.3
				c-0.1,0-0.1-0.1-0.1-0.2s0.1-0.2,0.2-0.2c0.1-0.1,0.3-0.1,0.6-0.1h0.5l0.5,0.1l0,0l0,0v-0.5c0,0,0,0-0.1,0c0,0-0.1,0-0.2,0
				s-0.2,0-0.2,0c-0.2,0-0.4,0-0.7,0c-0.5,0-0.9,0.1-1.2,0.3c-0.2,0-0.4,0.2-0.4,0.5s0.1,0.5,0.3,0.7c0.2,0.2,0.5,0.3,0.8,0.4
				c0.4,0.1,0.7,0.2,0.8,0.3c0.1,0.1,0.1,0.2,0.1,0.3c0,0.2-0.1,0.3-0.2,0.3c-0.1,0.1-0.3,0.1-0.7,0.1c-0.2,0-0.5,0-0.7-0.1
				l-0.5-0.1l0,0l0,0V32c0.2,0,0.3,0.1,0.6,0.1c0.2,0,0.5,0,0.8,0c0.6,0,1-0.1,1.3-0.3c0.3-0.2,0.5-0.4,0.5-0.8
				c0-0.2-0.1-0.4-0.3-0.6C74.6,30.3,74.3,30.1,73.9,30"/>
			<path class="st1" d="M79.8,31.6H78l0,0v-0.9l0,0h1.3l0,0v-0.4l0,0H78l0,0v-0.8l0,0h1.7l0,0v-0.4l0,0H77l0,0v3.3l0,0h2.8l0,0V31.6
				L79.8,31.6"/>
			<path class="st1" d="M82.9,28.7H82l0,0V32l0,0h0.9l0,0V28.7L82.9,28.7"/>
		</g>
		<g>
			<g>
				<path class="st1" d="M159.7,30.5c0,0.6-0.2,1-0.5,1.3c-0.3,0.3-0.8,0.4-1.3,0.4s-1-0.1-1.3-0.4c-0.3-0.3-0.5-0.7-0.5-1.2v-0.3
					c0-0.5,0.2-0.9,0.5-1.2s0.8-0.5,1.4-0.5c0.6,0,1,0.2,1.3,0.5s0.5,0.7,0.5,1.2L159.7,30.5L159.7,30.5z M158.7,30.4L158.7,30.4
					c0-0.5,0-0.8-0.1-1s-0.3-0.3-0.7-0.3c-0.3,0-0.5,0.1-0.7,0.3c-0.1,0.2-0.2,0.5-0.2,1v0.1c0,0.5,0,0.8,0.1,1s0.3,0.3,0.7,0.3
					c0.3,0,0.5-0.1,0.6-0.3C158.7,31.2,158.7,30.9,158.7,30.4"/>
				<path class="st1" d="M164.9,30.5c0,0.6-0.2,1-0.5,1.3c-0.3,0.3-0.8,0.4-1.3,0.4s-1-0.1-1.3-0.4c-0.3-0.3-0.5-0.7-0.5-1.2v-0.3
					c0-0.5,0.2-0.9,0.5-1.2s0.8-0.5,1.4-0.5c0.6,0,1,0.2,1.3,0.5s0.5,0.7,0.5,1.2L164.9,30.5L164.9,30.5z M163.9,30.4L163.9,30.4
					c0-0.5-0.1-0.8-0.1-1c-0.1-0.2-0.3-0.3-0.7-0.3c-0.3,0-0.5,0.1-0.7,0.3c-0.1,0.2-0.2,0.5-0.2,1v0.1c0,0.5,0,0.8,0.1,1
					s0.3,0.3,0.7,0.3c0.3,0,0.5-0.1,0.6-0.3C163.8,31.2,163.9,30.9,163.9,30.4"/>
				<path class="st1" d="M144.6,31.9L144.6,31.9L144.6,31.9 M142.2,31.4c0.1,0,0.2,0.1,0.3,0.1C142.3,31.5,142.2,31.5,142.2,31.4
					 M144.3,29.2c-0.1,0-0.2,0-0.2,0C144.2,29.2,144.2,29.2,144.3,29.2 M144.1,30c-0.4-0.1-0.7-0.2-0.8-0.3s-0.1-0.1-0.1-0.3
					c0-0.1,0.1-0.2,0.2-0.2c0.1-0.1,0.3-0.1,0.6-0.1h0.5l0.5,0.1l0,0l0,0v-0.5c0,0,0,0-0.1,0c0,0-0.1,0-0.2,0c-0.1,0-0.2,0-0.2,0
					c-0.2,0-0.4,0-0.7,0c-0.5,0-0.9,0.1-1.2,0.3s-0.5,0.4-0.5,0.7s0.1,0.5,0.3,0.7s0.5,0.3,0.8,0.4c0.4,0.1,0.7,0.2,0.8,0.3
					s0.1,0.2,0.1,0.3c0,0.2-0.1,0.3-0.2,0.3c-0.1,0.1-0.3,0.1-0.7,0.1c-0.2,0-0.5,0-0.7-0.1l-0.5-0.1l0,0l0,0v0.5
					c0.2,0,0.3,0.1,0.6,0.1c0.2,0,0.5,0,0.8,0c0.6,0,1-0.1,1.3-0.3c0.3-0.2,0.5-0.4,0.5-0.8c0-0.2-0.1-0.4-0.3-0.6
					C144.8,30.3,144.5,30.2,144.1,30"/>
				<path class="st1" d="M154.5,28.7h-0.9l0,0v1.4h-1.1v-1.4l0,0h-0.9l0,0V32l0,0h0.9l0,0v-1.4h1.1V32l0,0h0.9l0,0V28.7L154.5,28.7"
					/>
				<path class="st1" d="M148,29.5c0.2-0.2,0.5-0.3,0.8-0.3c0.2,0,0.4,0,0.5,0s0.2,0,0.3,0.1l0,0l0,0v-0.5l0,0
					c-0.1,0-0.2-0.1-0.4-0.1s-0.4,0-0.6,0c-0.6,0-1,0.2-1.4,0.5s-0.6,0.7-0.6,1.2v0.1c0,0.5,0.2,1,0.6,1.2c0.4,0.3,0.9,0.4,1.4,0.4
					c0.2,0,0.4,0,0.6,0c0.2,0,0.3-0.1,0.3-0.1l0,0v-0.4l0,0l0,0c-0.1,0-0.2,0-0.3,0.1c-0.2,0-0.3,0.1-0.6,0.1s-0.6-0.1-0.8-0.3
					s-0.3-0.5-0.3-0.9l0,0C147.7,30,147.8,29.7,148,29.5"/>
				<path class="st1" d="M169.2,31.6h-1.6v-2.9l0,0h-1l0,0v3.4l0,0h2.6l0,0V31.6L169.2,31.6"/>
			</g>
			<g>
				<path class="st1" d="M135.3,30.7L135.3,30.7 M134.3,30.8L134.3,30.8L134.3,30.8z M136.8,28.7h-0.7H136l-1,1.3l0,0l0,0l-0.9-1.3
					c0,0,0,0-0.1,0h-1.1l0,0l1.5,2v0.1V32l0,0h1l0,0v-1.3v-0.1L136.8,28.7L136.8,28.7z"/>
				<path class="st1" d="M131.6,32c0-0.5-0.1-1-0.3-1.2c-0.2-0.3-0.4-0.5-0.8-0.5c0.3,0,0.5-0.1,0.7-0.2c0.2-0.1,0.2-0.3,0.2-0.5
					v-0.2c0-0.2-0.1-0.4-0.3-0.5s-0.5-0.2-0.9-0.2h-0.8l0,0h-0.9l0,0V32l0,0h0.9l0,0v-1.5h0.2c0.3,0,0.5,0.1,0.6,0.4
					c0.1,0.2,0.2,0.6,0.2,1.1l0,0l0,0l0,0L131.6,32C131.5,32.1,131.6,32.1,131.6,32L131.6,32z M130.5,29.7c0,0.1-0.1,0.2-0.2,0.3
					c-0.1,0.1-0.3,0.1-0.5,0.1h-0.3v-0.9h0.3c0.2,0,0.3,0,0.4,0.1C130.4,29.3,130.5,29.4,130.5,29.7L130.5,29.7z"/>
				<path class="st1" d="M117.6,28.7H117l0,0v1.9l0,0l-2.1-2l0,0l0,0l0,0h-0.5l0,0v3.3l0,0h0.6l0,0v-2.1l0,0l2.2,2.1l0,0l0,0l0,0
					h0.4l0,0V28.7L117.6,28.7"/>
				<path class="st1" d="M96.4,31.6h-1.6v-2.9l0,0h-1l0,0v3.4l0,0h2.6l0,0V31.6L96.4,31.6"/>
				<path class="st1" d="M127,32l-1.5-3.3l0,0h-0.9l0,0l-1.4,3.3l0,0l0,0l0,0l0,0l0,0l0,0h0.7l0,0l0,0l0.3-0.7l0,0c0,0,0,0,0-0.1
					l0,0h1.3l0,0l0,0l0,0l0.3,0.7l0,0l0,0L127,32C127,32.1,127,32.1,127,32L127,32L127,32z M125.5,30.7L125.5,30.7
					C125.4,30.8,125.4,30.8,125.5,30.7C125.4,30.8,125.4,30.8,125.5,30.7h-1l0,0l0,0l0,0l0,0l0.4-1.1l0,0l0,0L125.5,30.7L125.5,30.7
					z"/>
				<path class="st1" d="M103.5,30.2L103.5,30.2L103.5,30.2 M107.6,28.7H107h-0.1l-1.7,2.4l0,0l0,0l-1.7-2.4c0,0,0,0-0.1,0h-0.7l0,0
					V32l0,0h0.6l0,0v-1.9l1.3,1.9c0,0,0,0,0.1,0h0.5h0.1l1.4-1.9l0,0V32l0,0h0.9l0,0L107.6,28.7L107.6,28.7"/>
				<path class="st1" d="M91.9,31.6h-1.8l0,0v-0.9l0,0h1.3l0,0v-0.4l0,0h-1.3l0,0v-0.8l0,0h1.7l0,0v-0.4l0,0h-2.7l0,0v3.3l0,0h2.8
					l0,0V31.6L91.9,31.6"/>
				<path class="st1" d="M101,31.6h-1.8l0,0v-0.9l0,0h1.3l0,0v-0.4l0,0h-1.3l0,0v-0.8l0,0h1.7l0,0v-0.4l0,0h-2.7l0,0v3.3l0,0h2.8
					l0,0V31.6L101,31.6"/>
				<path class="st1" d="M112.3,31.6h-1.8l0,0v-0.9l0,0h1.3l0,0v-0.4l0,0h-1.3l0,0v-0.8l0,0h1.7l0,0v-0.4l0,0h-2.7l0,0v3.3l0,0h2.8
					l0,0V31.6C112.4,31.6,112.4,31.6,112.3,31.6"/>
				<path class="st1" d="M122.2,28.7h-2.9l0,0v0.4l0,0h0.9l0,0v2.8l0,0h0.9l0,0v-2.8l0,0h0.9l0,0L122.2,28.7L122.2,28.7"/>
			</g>
		</g>
	</g>
</g>
</svg>
