<?xml version="1.0" encoding="UTF-8"?><svg id="_イヤー_1" xmlns="http://www.w3.org/2000/svg" viewBox="0 0 203.66 199"><defs><style>.cls-1{fill:#fbb03b;}.cls-1,.cls-2{opacity:.06;}.cls-2{fill:#0071bc;}</style></defs><path class="cls-2" d="M79.34,180.23c-1.52-1.21-2.86-2.28-4.2-3.34-4.9-3.87-9.9-7.6-15.01-11.15-4.92-3.42-9.95-6.63-15.1-9.64-4.23-2.47-8.56-4.68-12.97-6.75-4.63-2.16-9.36-4.03-14.21-5.52-2.49-.77-5.01-1.44-7.56-1.99-3.09-.66-6.18-1.23-9.32-1.52-.12-.01-.23-.03-.34-.07-.21-.07-.53,.01-.6-.28-.07-.27,.18-.44,.34-.61,1.44-1.54,2.89-3.08,4.34-4.62,2-2.13,3.99-4.29,6.02-6.39,.64-.66,2.1-3.7,8.67-.76,5.65,2.29,11.18,4.86,16.59,7.75,5.12,2.74,10.11,5.73,14.97,8.96,6.69,4.44,13.13,9.27,19.38,14.39,4.65,3.82,9.21,7.76,13.66,11.83,3.59,3.28,7.12,6.63,10.6,10.05,2.23,2.2,4.5,4.35,6.69,6.6,.49,.51,.8,.37,1.24-.07,3.47-3.43,6.91-6.89,10.44-10.25,4.99-4.74,10.06-9.39,15.27-13.84,5.68-4.85,11.49-9.49,17.5-13.85,4.62-3.34,9.34-6.49,14.22-9.38,.2-.12,.36-.21,.5-.3,1.97-1.19,3.97-2.33,5.99-3.42l.2-.11c3.41-1.84,6.85-3.62,10.38-5.21,4.16-1.89,8.37-3.62,12.67-5.14,.5-.18,.82-.04,1.18,.31,.42,.42,8.96,9.68,12.29,13.26,.22,.24,.62,.46,.52,.79-.12,.39-.61,.34-.93,.35-1.87,.05-3.71,.47-5.55,.74-2.25,.33-4.46,.91-6.67,1.49-3.94,1.02-7.82,2.27-11.63,3.75-3.02,1.17-5.99,2.46-8.92,3.81-2.96,1.36-5.8,3.04-8.7,4.56-3.11,1.63-6.12,3.47-9.1,5.35-2.25,1.42-4.44,2.97-6.66,4.45-5.29,3.54-10.38,7.38-15.46,11.26-1.87,1.42-3.68,2.92-5.44,4.54,1.46-.66,2.92-1.33,4.39-1.97,3.57-1.55,7.18-2.97,10.84-4.24,3.16-1.09,6.32-2.18,9.5-3.18,2.82-.89,5.68-1.66,8.52-2.49,4.18-1.23,8.37-2.46,12.55-3.69,3.18-.94,6.36-1.89,9.53-2.85,.22-.07,.57-.23,.78-.33,1.52-.77,2.92-.31,4.37,.37,3.98,1.85,8,3.62,12,5.43,1.15,.52,2.31,1.05,3.46,1.58,.21,.1,.51,.17,.43,.48-.06,.26-.34,.16-.54,.18-3.84,.4-7.68,.89-11.52,1.31-2.22,.24-4.43,.52-6.63,.9-2.72,.47-5.45,.89-8.17,1.42-2.41,.46-4.83,.9-7.21,1.46-3.81,.9-7.6,1.87-11.35,3.04-2.57,.8-5.15,1.58-7.71,2.45-4.3,1.47-8.59,3.01-12.83,4.68-3.53,1.39-7.05,2.8-10.55,4.28-5.45,2.3-10.9,4.62-16.27,7.14-1.96,.92-3.95,1.78-5.92,2.68-.28,.13-.6,.13-.88,0-4.18-1.91-8.36-3.84-12.56-5.69-3.75-1.65-7.53-3.21-11.31-4.8-2.17-.91-4.42-1.62-6.55-2.58-3.95-1.78-8.02-3.17-12.07-4.64-4.16-1.51-8.37-2.85-12.61-4.05-3.64-1.03-7.29-2.01-10.99-2.79-2.97-.63-5.94-1.23-8.94-1.7-2.45-.38-4.89-.78-7.34-1.13-2.89-.41-5.78-.73-8.67-1.1-2.43-.31-4.86-.54-7.29-.88-.14-.02-.33,.01-.36-.19-.03-.22,.13-.33,.3-.4,2.68-1.23,5.35-2.45,8.06-3.59,3.05-1.28,5.97-2.87,9.03-4.13,.57-.23,1.13-.25,1.7-.07,2.12,.67,4.23,1.38,6.36,2.04,2.32,.71,4.66,1.37,6.99,2.06,2.36,.69,4.72,1.39,7.08,2.08,3.59,1.06,7.18,2.17,10.78,3.18,3.24,.91,6.43,2.01,9.62,3.1,3.69,1.26,7.34,2.66,10.94,4.21,1.21,.52,2.38,1.19,3.69,1.45,.68,.13,1.1,.91,2.08,.97Z"/><path class="cls-2" d="M173.52,108.68c-2.04,9.58-5.5,18.55-10.24,26.97,.43-.2,.62-.59,.85-.94,3.9-6.01,7.05-12.44,9.46-19.29,1.76-4.99,2.97-10.13,3.89-15.35,.57-3.24,.85-6.53,1.03-9.81,.23-4.24,.12-8.49-.29-12.73-.95,1.48-1.89,2.95-2.82,4.39,.56,9.03,0,17.92-1.87,26.74Z"/><path class="cls-2" d="M172.84,54.37c-8.09-21.97-25.06-40.12-45.74-48.68C115.66,.96,103.19-.8,90.97,.33c-6.17,.57-12.28,1.88-18.17,3.91-5.24,1.81-11.26,4.08-15.89,7.21-15.9,10.77-29.52,28.1-35.78,47.05-6.64,20.12-4.66,44.02,7.79,60.73,14.2,19.06,39.4,25.75,62.04,22.37,22.63-3.38,43.28-15.3,62.8-27.95-14.69-5.03-25.44-20.94-25.26-37.37-6.87,7.71-14.04,15.11-21.48,22.18-5.96-10.87-10.91-22.35-14.78-34.24,13.68-6.11,28.05-10.46,42.71-12.94,1.09-.18,2.24-.35,3.26,.1,1.12,.5,1.84,1.65,2.5,2.74,2.41,3.99,4.82,7.99,7.23,11.98l-11.64,6.14c12.61-4.69,25.22-9.38,37.83-14.08-.4-1.28-.84-2.55-1.3-3.81ZM105.02,3.11c13.04,1.01,25.03,5.48,35.99,13.56-1.25,.11-2.28,.29-3.31,.28-1.96-.02-3.93,.06-5.86,.3-2.2,.27-4.4,.41-6.6,.75-1.87,.29-3.76,.49-5.63,.8-2.93,.48-5.85,1.09-8.77,1.67-.7,.14-1.28,0-1.92-.37-3.34-1.91-6.72-3.75-10.24-5.29-3.84-1.68-7.76-3.09-11.76-4.24-2.02-.58-4.07-1.06-6.14-1.47-2-.4-4.01-.72-6.01-1.19,9.74-4.09,19.88-5.6,30.25-4.8Zm-34.63,6.61c.3-.12,.61-.23,.91-.34,1.35-1.01,2.74-1.08,4.32-.53,1.52,.53,3.11,.81,4.66,1.24,4.19,1.15,8.28,2.61,12.31,4.27,4.14,1.72,8.1,3.85,12.05,6.02,.61,.33,1.02,.65,1.4,1.12-1.14,.52-2.35,.73-3.52,1.06-3.98,1.12-7.9,2.42-11.79,3.84-2.98,1.09-5.89,2.38-8.83,3.59-.6,.25-1.17,.55-1.75,.85-.45,.23-.75,.17-.95-.39-1.56-4.35-3.14-8.69-4.72-13.04-.84-2.31-1.69-4.63-2.54-6.94-.1-.28-.14-.62-.47-.75,.03,.95,.42,1.8,.63,2.7,.29,1.25,.57,2.53,.97,3.73,.38,1.14,.77,2.29,1.14,3.45,1.25,3.87,2.46,7.76,3.71,11.63,.19,.59-.18,.7-.51,.88-2.48,1.32-4.99,2.57-7.44,3.95-4.71,2.64-9.24,5.58-13.64,8.77-.28,.2-.53,.48-.97,.48,.08-1.11,.47-2.12,.76-3.15,1.24-4.33,2.59-8.63,4.14-12.85,1.62-4.43,3.4-8.79,5.41-13.04,.6-1.28,1.33-2.49,1.84-3.81,.56-1.46,1.59-2.24,2.89-2.75Zm-20.67,74.13c.18-3.39,.29-6.88,.57-10.34,.25-3.03,.59-6.05,1.06-9.04,.69-4.34,1.49-8.66,2.4-12.95,.27-1.29,.84-2.04,1.82-2.73,4.05-2.85,8.22-5.47,12.47-7.95,3.41-1.98,6.89-3.81,10.41-5.56,.56-.28,.71-.09,.88,.4,.64,1.9,1.29,3.79,1.95,5.69,1.35,3.91,2.71,7.81,4.06,11.71,1.01,2.91,2.01,5.83,3.06,8.73,.2,.55-.07,.64-.4,.8-3.86,1.85-7.65,3.86-11.41,5.95-3.57,1.99-7.02,4.18-10.45,6.41-4.06,2.64-8.03,5.45-11.91,8.38-1.19,.9-2.36,1.83-3.55,2.74-.25,.19-.47,.61-.81,.41-.32-.19-.14-.63-.16-.95-.02-.53,0-1.06,0-1.67Zm-8.85-48.79c7.17-10.13,16.03-18.13,26.86-23.97-.33,1-.91,1.58-1.33,2.26-3.64,5.88-6.83,12-9.41,18.49-1.43,3.61-2.7,7.27-3.89,10.97-.45,1.41-.85,2.84-1.19,4.28-.22,.91-.6,1.57-1.34,2.17-2.28,1.84-4.52,3.74-6.68,5.74-2.89,2.67-5.75,5.38-8.39,8.33-3.53,3.94-6.93,8-9.91,12.43-.14,.21-.24,.5-.56,.57,2.02-15.19,7.17-29.01,15.84-41.27Zm-15.9,63.57c-1.01-4.59-.94-9.38-.7-14.09,.12-2.35,.29-4.75,1.15-6.92,1-2.54,2.85-4.56,4.68-6.5,3.3-3.49,6.68-6.89,10.13-10.2,1.73-1.66,3.46-3.3,5.23-4.91,0,0,4.32-3.26,4.22-2.22-.94,10.41-1.94,20.81-3.02,31.21-.16,1.57-.34,3.19-1.09,4.56-.58,1.06-1.46,1.89-2.33,2.69-3.41,3.19-6.82,6.37-10.23,9.56,4.41-3.53,8.82-7.06,13.22-10.59,.06,10.75,1.01,21.5,2.84,32.07-11.17-3.42-21.33-12.44-24.07-24.47-.01-.06-.03-.13-.04-.19Zm88.64,9.07c3.84-2.78,7.57-5.72,11.17-8.84l.02,.15c.85,5.44,3.8,10.25,8.12,13.29h0c-6.64,4.17-13.43,8.05-20.47,11.41-4.08,1.95-8.22,3.72-12.43,5.29-3.24,1.21-6.55,2.23-9.89,3.13-3,.81-6.02,1.5-9.07,1.95-5.09,.76-10.22,1.11-15.38,.72-2.04-.15-4.08-.34-6.08-.71-3.5-.66-6.94-1.61-10.26-3.02-3.85-1.63-7.48-3.67-10.8-6.31-4.51-3.59-8.37-7.83-11.34-12.95-.09-.15-.15-.32-.23-.48l.21-.18c.39,.45,.78,.92,1.18,1.36,4.06,4.47,8.69,8.13,13.96,10.81,3.35,1.7,6.86,2.93,10.53,3.67,3.54,.72,7.1,1.16,10.7,1.02,4.7-.18,9.34-.87,13.91-2.11,3.46-.94,6.85-2.07,10.18-3.41,3.53-1.42,6.95-3.09,10.31-4.9,5.43-2.92,10.64-6.25,15.67-9.9Zm-19.54-30.2c1.09,2.98,2.19,5.96,3.29,8.93,1.12,3,2.24,6,3.37,9,.2,.54,2.99,6.38,2.99,6.38-1.45,1.18-5.06,4.13-6.28,5.12-4.73,3.81-9.72,7.22-14.97,10.17-3.59,2.01-7.33,3.67-11.21,4.98-2.51,.85-5.05,1.56-7.64,1.92-2.77,.39-5.57,.68-8.39,.31-.43-.06-.67-.23-.78-.71-.55-2.38-1.19-4.73-1.67-7.13-.59-2.97-1.18-5.95-1.56-8.96-.24-1.9-.49-3.81-.7-5.72-.15-1.45-.38-2.91-.36-4.35,.03-2.8-.63-5.56-.44-8.36,.04-.53,.22-.84,.61-1.13,3.55-2.69,7.24-5.14,10.97-7.54,3.65-2.35,7.36-4.57,11.16-6.63,.28-.15,1.51-.81,1.84-.99,4.81-2.61,9.68-5.09,14.69-7.26,.55-.24,.71-.08,.89,.42,1.39,3.86,2.78,7.71,4.19,11.56Zm33.65-27.74c-3.07,.53-6.13,1.16-9.17,1.91-2.96,.73-5.89,1.51-8.81,2.4-3,.92-5.97,1.94-8.91,3.05-3.19,1.21-6.34,2.52-9.45,3.93-.47,.21-.65,.02-.8-.37-.44-1.11-.89-2.23-1.31-3.35-1.57-4.14-3.15-8.29-4.71-12.44-1.24-3.29-2.46-6.58-3.69-9.87-.27-.72,.11-.97,.67-1.23,4.64-2.2,9.38-4.14,14.17-5.94,4.15-1.56,8.36-2.94,12.6-4.19,.79-.23,1.44-.08,2.14,.39,3.76,2.53,7.34,5.32,10.78,8.31,4.48,3.91,8.6,8.22,12.47,12.82,.89,1.06,1.77,2.14,2.77,3.34-3.02,.42-5.9,.73-8.74,1.23Zm41.8,7.45c-1.87,.79-3.74,1.59-5.6,2.39-3.36,1.43-6.72,2.85-10.08,4.28-.41,.17-.85,.27-1.22,.51-.43,.28-.68,.13-.98-.2-.96-1.06-1.66-2.32-2.46-3.51-2.2-3.29-4.42-6.57-6.79-9.72-.12-.16-.36-.3-.25-.55,.11-.26,.38-.27,.61-.27,2.8-.03,5.57-.56,8.38-.66,1.8-.06,3.63-.23,5.42-.17,2.51,.09,5.02-.16,7.53,.21,.85,.12,1.72,.02,2.59,.02v-.25c-.61-.08-1.22-.19-1.82-.25-2.41-.22-4.82-.48-7.23-.67-4.83-.39-9.65-.34-14.48-.31-.47,0-.96-.01-1.39,.13-1,.33-1.64-.09-2.25-.88-3.73-4.8-7.88-9.18-12.25-13.32-4.26-4.03-8.78-7.71-13.63-10.91-.23-.15-.62-.26-.58-.61,.04-.28,.39-.31,.65-.38,3.04-.73,6.07-1.52,9.12-2.19,2.4-.53,4.82-.89,7.23-1.38,3.15-.64,6.38-.74,9.51-1.5,1.89-.46,3.05,.75,4.29,1.76,3.28,2.65,6.42,5.51,9.23,8.72,3.35,3.82,6.43,7.88,9.11,12.28,.83,1.36,1.46,2.84,2.29,4.17,1.86,3.01,3.16,6.29,4.58,9.52,.37,.84,.6,1.76,1,2.58,.35,.72,0,.93-.51,1.15Z"/><path class="cls-1" d="M189.69,55.35c-.07-.19-.18-.26-.31-.26-.18,0-.4,.14-.59,.2-1.76,.58-7.3,2.6-14.25,5.17-.85,.31-1.71,.63-2.6,.96-12.16,4.5-27.49,10.25-34.95,13.1-.06,.02-.11,.05-.16,.06-1.94,.74-3.33,1.28-3.95,1.53-.28,.11-.63,.17-.69,.65-.07,.63,.34,.65,.64,.79,.91,.45,1.87,.72,2.78,1.17,2.66,1.31,5.37,2.48,8.07,3.64,.34,.15,.68,.22,1.02,.22,.58,0,1.16-.21,1.76-.62,1.48-1.02,3-1.9,4.5-2.82,7.19-4.39,14.38-8.77,21.56-13.15,.96-.59,1.93-1.18,2.89-1.76,.67-.41,1.34-.81,2-1.22,2.54-1.55,5.07-3.1,7.61-4.66l.06,.32c-2.42,1.96-4.81,3.96-7.25,5.86-.66,.52-1.33,1.03-1.99,1.55-1.07,.84-2.15,1.67-3.23,2.51-6.98,5.46-13.97,10.91-20.96,16.34-1.15,.89-2.09,1.89-2.53,3.75-.32,1.37-.91,2.64-1.35,3.97-.76,2.31-1.51,4.63-2.29,7.05,.07,.01,.13,.02,.18,.02,.41,0,.64-.26,.87-.51,2.23-2.38,4.48-4.72,6.68-7.15,.35-.38,.64-.58,.93-.58,.25,0,.51,.15,.79,.47,1.91,2.1,3.89,4.09,5.79,6.2,.22,.25,.43,.49,.63,.65,.12,.09,.24,.16,.36,.16,.24,0,.48-.23,.75-.85,.05-.12,7.81-12.22,15.25-23.78,4.6-7.15,9.08-14.09,11.52-17.85,.21-.33,.63-.65,.45-1.13Z"/></svg>