<?xml version="1.0" encoding="utf-8"?>
<!-- Generator: Adobe Illustrator 24.0.1, SVG Export Plug-In . SVG Version: 6.00 Build 0)  -->
<svg version="1.1" id="Layer_1" xmlns="http://www.w3.org/2000/svg" xmlns:xlink="http://www.w3.org/1999/xlink" x="0px" y="0px"
	 width="550px" height="34px" viewBox="0 0 550 34" style="enable-background:new 0 0 550 34;" xml:space="preserve">
<style type="text/css">
	.st0{fill:#E7F4FA;}
</style>
<g>
	<path class="st0" d="M534.8,4.9c-5.4-1.6-15-1.7-15-1.7c-15.4-1-18.2,6.9-37.5,4.9c-19.4-2-16.1-5.3-35.8-5.5
		c-25-0.2-22.7,7.6-39.2,6.9c-23.8-1.1-9.3-5.7-33-5.8c-13.5,0-31.8,7.2-52.8,1.2c-10.7-3.1-25.7,0.4-32.6,1.7
		c-4.5,0.8-9.2,0.5-13.9-0.2c-4.7-0.7-9.4-1.9-13.9-2.8c-6.9-1.3-17.8,0.1-32.6,4.4c-28.5,7.9-26.6-5-44.2-5.3
		c-23.7-0.4-17.8,5.7-41.6,6.8C126.2,10.2,124.3,0,104.5,0S83.2,5.5,63.8,7.6C44.5,9.6,33-0.4,17.6,0c0,0-6.4,0.6-8.5,1.4
		C6,2.5,2.3,3.5,0,4.2V34h550V4.3C545.3,6,540.2,6.4,534.8,4.9z"/>
</g>
</svg>
