<svg id="ico_check_acquisition" xmlns="http://www.w3.org/2000/svg" width="33.905" height="34.297" viewBox="0 0 33.905 34.297">
  <path id="パス_4641" data-name="パス 4641" d="M3740.548,2944.519c-3.25,0-6.5.009-9.751,0-3.542-.012-6.349-2.356-6.454-5.9-.209-7.049-.28-14.109.044-21.157a6,6,0,0,1,5.929-5.52c5.8-.056,11.608-.026,17.412-.015,1.19,0,2.05.74,1.925,1.7a1.757,1.757,0,0,1-2.016,1.639c-5.479-.03-10.958-.016-16.438-.011-2.419,0-3.555,1.128-3.558,3.549q-.012,9.4,0,18.806c0,2.491,1.126,3.578,3.679,3.58q9.263.007,18.528,0c2.5,0,3.652-1.141,3.66-3.66.018-5.247.007-10.493.01-15.741,0-.371,0-.743.031-1.113a1.505,1.505,0,0,1,1.495-1.511,1.566,1.566,0,0,1,1.79,1.373,6.189,6.189,0,0,1,.063,1.386c0,5.154-.065,10.31.026,15.462a6.7,6.7,0,0,1-7.184,7.163C3746.682,2944.4,3743.613,2944.519,3740.548,2944.519Z" transform="translate(-3724.165 -2910.259)" fill="#1e1b1a" fill-rule="evenodd"/>
  <path id="パス_4642" data-name="パス 4642" d="M3759.545,2925.977c1.842-3.357,3.519-6.605,5.529-9.657a42.067,42.067,0,0,1,6.563-8.081,8.83,8.83,0,0,1,3.56-2.1c.4-.114.883-.291,1.149.116s-.234.638-.441.908a120.392,120.392,0,0,0-13.089,21.441c-1.092,2.29-2.053,4.641-3.179,7.2a42.086,42.086,0,0,0-3.958-7.927,29.688,29.688,0,0,0-5.486-6.437c-.23-.2-.684-.317-.568-.693s.586-.414.937-.48a6.088,6.088,0,0,1,5.352,1.724A27.048,27.048,0,0,1,3759.545,2925.977Z" transform="translate(-3742.514 -2906.001)" fill="#c68120" fill-rule="evenodd"/>
</svg>
