<svg id="tw_42x42" xmlns="http://www.w3.org/2000/svg" width="42" height="42" viewBox="0 0 42 42">
  <circle id="楕円形_17" data-name="楕円形 17" cx="21" cy="21" r="21" fill="#1da1f2"/>
  <path id="パス_55" data-name="パス 55" d="M17.16,32.08a14.3,14.3,0,0,0,14.4-14.4c0-.22,0-.44-.01-.65a10.331,10.331,0,0,0,2.53-2.62,10.446,10.446,0,0,1-2.91.8,5.09,5.09,0,0,0,2.23-2.8,10.233,10.233,0,0,1-3.21,1.23,5.065,5.065,0,0,0-8.76,3.46,4.828,4.828,0,0,0,.13,1.15,14.352,14.352,0,0,1-10.43-5.29,5.049,5.049,0,0,0,1.56,6.75,5.054,5.054,0,0,1-2.29-.63v.06a5.064,5.064,0,0,0,4.06,4.96,5.026,5.026,0,0,1-2.28.09,5.077,5.077,0,0,0,4.73,3.52,10.153,10.153,0,0,1-6.29,2.17,9.707,9.707,0,0,1-1.21-.07,14.316,14.316,0,0,0,7.75,2.27" fill="#fff"/>
</svg>
