<svg id="line_42x42" xmlns="http://www.w3.org/2000/svg" width="42" height="42" viewBox="0 0 42 42">
  <circle id="楕円形_16" data-name="楕円形 16" cx="21" cy="21" r="21" fill="#00b900"/>
  <g id="TYPE_A_19_">
    <g id="グループ_2047" data-name="グループ 2047">
      <path id="パス_50" data-name="パス 50" d="M34.97,19.74C34.97,13.49,28.7,8.4,21,8.4S7.03,13.49,7.03,19.74c0,5.6,4.97,10.3,11.68,11.18.45.1,1.07.3,1.23.69a2.981,2.981,0,0,1,.05,1.26s-.16.99-.2,1.2c-.06.35-.28,1.38,1.21.75s8.04-4.74,10.97-8.11h0a10.061,10.061,0,0,0,3-6.97" fill="#fff"/>
      <g id="グループ_2046" data-name="グループ 2046">
        <path id="パス_51" data-name="パス 51" d="M18.16,16.72h-.98a.269.269,0,0,0-.27.27v6.09a.269.269,0,0,0,.27.27h.98a.269.269,0,0,0,.27-.27V16.99a.269.269,0,0,0-.27-.27" fill="#00b900"/>
        <path id="パス_52" data-name="パス 52" d="M24.91,16.72h-.98a.269.269,0,0,0-.27.27v3.62l-2.79-3.77c-.01-.01-.01-.02-.02-.03h0l-.02-.02h-.01l-.01-.01-.01-.01-.01-.01h-.01l-.01-.01h-.01c-.01,0-.01,0-.02-.01h-.01c-.01,0-.01,0-.02-.01H19.66a.269.269,0,0,0-.27.27v6.09a.269.269,0,0,0,.27.27h.98a.269.269,0,0,0,.27-.27V19.48l2.79,3.77a.234.234,0,0,0,.07.07h0c.01,0,.01.01.02.01h.01a13269161351.141,13269161351.141,0,0,0,.02.02h.01c.01,0,.01,0,.02.01h0a.17.17,0,0,0,.07.01h.98a.269.269,0,0,0,.27-.27V17.01a.261.261,0,0,0-.26-.29" fill="#00b900"/>
        <path id="パス_53" data-name="パス 53" d="M15.8,21.82H13.14V16.99a.269.269,0,0,0-.27-.27h-.98a.269.269,0,0,0-.27.27v6.09h0a.273.273,0,0,0,.08.19h0a.256.256,0,0,0,.19.08H15.8a.269.269,0,0,0,.27-.27V22.1a.278.278,0,0,0-.27-.28" fill="#00b900"/>
        <path id="パス_54" data-name="パス 54" d="M30.32,18.24a.269.269,0,0,0,.27-.27v-.98a.269.269,0,0,0-.27-.27H26.4a.273.273,0,0,0-.19.08h0a.256.256,0,0,0-.08.19h0v6.09h0a.273.273,0,0,0,.08.19h0a.256.256,0,0,0,.19.08h3.91a.269.269,0,0,0,.27-.27V22.1a.269.269,0,0,0-.27-.27H27.65V20.8h2.66a.269.269,0,0,0,.27-.27v-.98a.269.269,0,0,0-.27-.27H27.65V18.25h2.67Z" fill="#00b900"/>
      </g>
    </g>
  </g>
</svg>
