<svg id="fb_42x42" xmlns="http://www.w3.org/2000/svg" width="42" height="42" viewBox="0 0 42 42">
  <path id="パス_48" data-name="パス 48" d="M42,21A21,21,0,1,0,17.72,41.74V27.07H12.39V21h5.33V16.37c0-5.26,3.14-8.17,7.93-8.17a32.243,32.243,0,0,1,4.7.41v5.17H27.7c-2.61,0-3.42,1.62-3.42,3.28V21H30.1l-.93,6.07H24.28V41.74A21,21,0,0,0,42,21Z" fill="#1877f2"/>
  <path id="パス_49" data-name="パス 49" d="M29.17,27.07,30.11,21H24.29V17.06c0-1.66.81-3.28,3.42-3.28h2.65V8.61a32.243,32.243,0,0,0-4.7-.41c-4.8,0-7.93,2.91-7.93,8.17V21H12.4v6.07h5.33V41.74A20.618,20.618,0,0,0,21,42a20.84,20.84,0,0,0,3.28-.26V27.07Z" fill="#fff"/>
</svg>
